<svg xmlns="http://www.w3.org/2000/svg" xmlns:xlink="http://www.w3.org/1999/xlink">
  <!-- dashboard -->
  <symbol id="touchpoint" viewBox="0 0 87 17">
    <path d="M9.07532 2.7542H5.67717V13.0501H3.40289V2.7542H0V0.623962H9.07532V2.7542Z" fill="currentColor"/>
    <path d="M12.7011 4.58215C13.5136 4.56915 14.316 4.76492 15.0312 5.15072C15.7125 5.49949 16.2804 6.03489 16.6687 6.69439C17.0658 7.3785 17.2689 8.15788 17.2562 8.94877C17.269 9.73997 17.0659 10.5197 16.6687 11.2041C16.2777 11.866 15.7109 12.4065 15.0312 12.7658C14.3123 13.1401 13.5115 13.3293 12.7011 13.3163C11.8847 13.328 11.078 13.139 10.3519 12.7658C9.67991 12.4024 9.11993 11.8625 8.73244 11.2041C8.33526 10.5197 8.13214 9.73997 8.14492 8.94877C8.13227 8.15788 8.33538 7.3785 8.73244 6.69439C9.11722 6.03846 9.6783 5.50364 10.3519 5.15072C11.0744 4.76603 11.8826 4.57043 12.7011 4.58215ZM12.7011 6.64132C12.0245 6.64132 11.4666 6.85454 11.0276 7.28096C10.6011 7.69539 10.3876 8.25132 10.387 8.94877C10.3863 9.64621 10.5999 10.2085 11.0276 10.6355C11.4698 11.0499 12.0276 11.2572 12.7011 11.2572C13.3745 11.2572 13.926 11.0499 14.3556 10.6355C14.7826 10.2091 14.9962 9.64685 14.9962 8.94877C14.9962 8.25069 14.7826 7.69476 14.3556 7.28096C13.9311 6.85454 13.3795 6.64132 12.7011 6.64132Z" fill="currentColor"/>
    <path d="M21.8015 13.3164C20.9 13.3164 20.1647 13.0321 19.5955 12.4635C19.037 11.895 18.7581 11.031 18.7587 9.87179V4.84943H21.0008V9.48137C21.0008 10.0973 21.1372 10.5591 21.4102 10.8668C21.6831 11.1624 22.0621 11.3103 22.5473 11.3103C23.1159 11.3103 23.5609 11.1091 23.8825 10.7066C24.2028 10.2922 24.3629 9.65321 24.3629 8.78961V4.84943H26.5519V13.051H24.3999V11.7907H24.3648C23.795 12.8078 22.9406 13.3164 21.8015 13.3164Z" fill="currentColor"/>
    <path d="M32.693 13.3165C31.8788 13.3307 31.0732 13.148 30.3448 12.7839C29.6711 12.4306 29.11 11.8955 28.7253 11.2393C28.3364 10.5396 28.1401 9.74922 28.1567 8.94889C28.1403 8.14887 28.3365 7.35882 28.7253 6.65945C29.1077 6.00615 29.6698 5.47656 30.3448 5.13379C31.0696 4.75806 31.8767 4.56884 32.693 4.58322C33.7123 4.57602 34.7125 4.85936 35.5766 5.40007L34.629 7.19296C34.0619 6.82506 33.4011 6.62772 32.7252 6.62439C32.0499 6.62439 31.4923 6.8436 31.0526 7.28203C30.6155 7.7072 30.3969 8.26282 30.3969 8.94889C30.3969 9.63496 30.6164 10.1972 31.0555 10.6356C31.4939 11.0621 32.0514 11.275 32.728 11.2743C33.404 11.2711 34.0648 11.0737 34.6318 10.7058L35.5794 12.4987C34.7144 13.0398 33.7132 13.3234 32.693 13.3165Z" fill="currentColor"/>
    <path d="M39.1365 6.02064H39.1725C39.7771 5.06165 40.6669 4.58216 41.842 4.58216C42.7896 4.58216 43.5429 4.86044 44.102 5.41701C44.6611 5.97357 44.9397 6.83148 44.9378 7.99073V13.0501H42.7498V8.5015C42.7498 7.23801 42.1812 6.60627 41.0441 6.60627C40.4509 6.60627 39.9821 6.80147 39.6378 7.19189C39.3062 7.58231 39.14 8.19763 39.1394 9.03785V13.0501H36.9485V0.623962H39.1365V6.02064Z" fill="currentColor"/>
    <path d="M46.9437 4.84965H49.1147V6.0029H49.1507C49.4123 5.56314 49.787 5.20155 50.2357 4.95578C50.6982 4.70688 51.25 4.58242 51.8912 4.58242C52.5882 4.57643 53.2745 4.75389 53.8812 5.09698C54.4933 5.44925 54.9878 5.97438 55.3026 6.60653C55.659 7.25723 55.8368 8.03806 55.8362 8.94904C55.8355 9.86001 55.6577 10.6472 55.3026 11.3105C54.9841 11.9352 54.4901 12.4532 53.8812 12.8011C53.2748 13.1449 52.5884 13.3228 51.8912 13.3166C51.2494 13.3166 50.6975 13.1922 50.2357 12.9432C49.7876 12.6988 49.4129 12.3389 49.1507 11.9009H49.1147V16.6001H46.9437V4.84965ZM51.3388 11.2574C52.0027 11.2574 52.5366 11.0442 52.9402 10.6178C53.3559 10.192 53.5638 9.63575 53.5638 8.94904C53.5638 8.26233 53.3559 7.7064 52.9402 7.28123C52.5378 6.85481 52.004 6.64159 51.3388 6.64159C50.6735 6.64159 50.1337 6.85481 49.7193 7.28123C49.3169 7.70703 49.1153 8.26296 49.1147 8.94904C49.1141 9.63511 49.3156 10.1914 49.7193 10.6178C50.135 11.0442 50.6748 11.2574 51.3388 11.2574Z" fill="currentColor"/>
    <path d="M61.5023 4.58216C62.3152 4.56904 63.1179 4.76481 63.8335 5.15073C64.5143 5.49977 65.0818 6.03513 65.47 6.6944C65.8671 7.37851 66.0702 8.15789 66.0575 8.94878C66.0703 9.73998 65.8672 10.5197 65.47 11.2041C65.0791 11.8657 64.5127 12.4063 63.8335 12.7658C63.1143 13.1402 62.3131 13.3294 61.5023 13.3163C60.686 13.3281 59.8793 13.139 59.1532 12.7658C58.4812 12.4025 57.9212 11.8625 57.5337 11.2041C57.1365 10.5197 56.9334 9.73998 56.9462 8.94878C56.9335 8.15789 57.1367 7.37851 57.5337 6.6944C57.9185 6.03847 58.4796 5.50365 59.1532 5.15073C59.8757 4.76604 60.6839 4.57045 61.5023 4.58216ZM61.5023 6.64133C60.8257 6.64133 60.2679 6.85455 59.8288 7.28097C59.4024 7.6954 59.1889 8.25133 59.1883 8.94878C59.1876 9.64622 59.4011 10.2085 59.8288 10.6355C60.2679 11.05 60.8257 11.2572 61.5023 11.2572C62.1789 11.2572 62.7304 11.05 63.1569 10.6355C63.5839 10.2091 63.7975 9.64686 63.7975 8.94878C63.7975 8.2507 63.5839 7.69477 63.1569 7.28097C62.7298 6.85455 62.1783 6.64133 61.5023 6.64133Z" fill="currentColor"/>
    <path d="M67.6855 4.84949H69.8745V13.0511H67.6855V4.84949ZM68.7885 0.499926C68.9836 0.493397 69.1778 0.527896 69.3587 0.60119C69.5396 0.674484 69.703 0.784939 69.8385 0.925406C69.9793 1.06032 70.0901 1.22337 70.1638 1.40394C70.2374 1.58451 70.2722 1.77856 70.2659 1.97347C70.2695 2.16741 70.2335 2.36005 70.1602 2.53965C70.087 2.71925 69.9779 2.88206 69.8397 3.01815C69.7015 3.15424 69.537 3.26077 69.3563 3.33124C69.1756 3.40171 68.9824 3.43465 68.7885 3.42806C68.5952 3.43269 68.4029 3.39899 68.2227 3.32889C68.0425 3.25878 67.8779 3.15368 67.7386 3.01964C67.6048 2.88159 67.4998 2.71838 67.4295 2.53945C67.3592 2.36053 67.3251 2.16944 67.3292 1.97726C67.3223 1.78292 67.3552 1.58923 67.4259 1.40806C67.4965 1.2269 67.6035 1.06208 67.7401 0.923738C67.8768 0.785394 68.0403 0.676439 68.2206 0.603559C68.4008 0.530679 68.5941 0.495413 68.7885 0.499926Z" fill="currentColor"/>
    <path d="M76.9094 4.58247C77.857 4.58247 78.6101 4.86075 79.1685 5.41732C79.727 5.97389 80.0059 6.83179 80.0053 7.99104V13.0504H77.8163V8.50181C77.8163 7.23832 77.2528 6.60658 76.1257 6.60658C75.5325 6.60658 75.0641 6.80179 74.7204 7.1922C74.3767 7.58262 74.2046 8.19794 74.2039 9.03816V13.0504H72.033V4.8497H74.1859V6.09107H74.222C74.4848 5.62772 74.8653 5.24199 75.325 4.97289C75.8102 4.70724 76.3563 4.57268 76.9094 4.58247Z" fill="currentColor"/>
    <path d="M82.3782 13.0502V6.67745H80.862V4.8495H82.3782V1.56506H84.5672V4.8495H86.2577V6.6784H84.5672V13.0511" fill="currentColor"/>
  </symbol>

  <symbol id="touchpoint-icon" viewBox="0 0 18 18">
    <path d="M0 0L3.5646 3.5646C4.26577 2.86153 5.09897 2.30395 6.01631 1.9239C6.93365 1.54384 7.91704 1.34881 8.90999 1.35H9.08999C11.095 1.35 13.0179 2.1465 14.4357 3.56427C15.8535 4.98205 16.65 6.90496 16.65 8.91V9.09C16.6513 10.083 16.4564 11.0665 16.0765 11.9839C15.6965 12.9014 15.139 13.7347 14.436 14.436L3.5646 3.5646C2.86153 4.26578 2.30395 5.09897 1.9239 6.01631C1.54384 6.93365 1.34881 7.91705 1.35 8.91V9.09C1.35 11.095 2.1465 13.018 3.56427 14.4357C4.98204 15.8535 6.90496 16.65 8.90999 16.65H9.08999C10.083 16.6513 11.0665 16.4564 11.9839 16.0765C12.9014 15.6965 13.7347 15.139 14.436 14.436L18 18V0H0Z" fill="currentColor"/>
  </symbol>

  <symbol id="campaign" viewBox="0 0 20 20">
    <path d="M3.37609 5.75155C2.43201 5.75155 1.66669 6.51688 1.66669 7.46096V10.8798C1.66669 11.8238 2.43201 12.5892 3.37609 12.5892H4.23079V16.008C4.23079 16.48 4.61345 16.8627 5.08549 16.8627H6.79489C7.26693 16.8627 7.64959 16.48 7.64959 16.008V12.5892H10.2137L12.8625 14.7082C13.5173 15.232 14.4872 14.7658 14.4872 13.9273V4.41338C14.4872 3.57487 13.5173 3.1087 12.8625 3.63251L10.2137 5.75155H3.37609ZM18.3334 9.17036C18.3334 10.5164 17.5136 11.5066 16.8896 12.0654C16.6021 12.3228 16.1966 12.1047 16.1966 11.7189V6.6218C16.1966 6.23597 16.6021 6.01795 16.8896 6.27534C17.5136 6.83411 18.3334 7.82432 18.3334 9.17036Z" fill="currentColor"/>
  </symbol>

  <symbol id="inventory" viewBox="0 0 20 20">
    <path d="M15.8333 2.50001H12.35C12 1.53334 11.0833 0.833344 10 0.833344C8.91667 0.833344 8 1.53334 7.65 2.50001H4.16667C3.25 2.50001 2.5 3.25001 2.5 4.16668V15.8333C2.5 16.75 3.25 17.5 4.16667 17.5H15.8333C16.75 17.5 17.5 16.75 17.5 15.8333V4.16668C17.5 3.25001 16.75 2.50001 15.8333 2.50001ZM10 2.50001C10.4583 2.50001 10.8333 2.87501 10.8333 3.33334C10.8333 3.79168 10.4583 4.16668 10 4.16668C9.54167 4.16668 9.16667 3.79168 9.16667 3.33334C9.16667 2.87501 9.54167 2.50001 10 2.50001ZM7.74167 13.575L5.58333 11.4167C5.25833 11.0917 5.25833 10.5667 5.58333 10.2417C5.90833 9.91668 6.43333 9.91668 6.75833 10.2417L8.33333 11.8083L13.2333 6.90834C13.5583 6.58334 14.0833 6.58334 14.4083 6.90834C14.7333 7.23334 14.7333 7.75834 14.4083 8.08334L8.91667 13.575C8.6 13.9 8.06667 13.9 7.74167 13.575Z" fill="currentColor"/>
  </symbol>

  <symbol id="deals" viewBox="0 0 20 20">
    <path d="M16.8164 5.6181C16.6984 6.6429 17.1104 7.63733 17.9183 8.27843C18.4468 8.6979 18.75 9.32529 18.75 9.99997C18.75 10.6746 18.4469 11.3021 17.9185 11.7215C17.1104 12.3627 16.6985 13.3572 16.8165 14.3818C16.8936 15.0522 16.6643 15.7103 16.1871 16.1873C15.7101 16.6643 15.0521 16.8934 14.3817 16.8164C13.3568 16.6987 12.3627 17.1104 11.7216 17.9183C11.3022 18.4469 10.6747 18.75 10 18.75C9.32523 18.75 8.69778 18.4468 8.27843 17.9182C7.63733 17.1103 6.6429 16.6985 5.61816 16.8164C4.94847 16.8938 4.28993 16.6643 3.81274 16.1872C3.33572 15.7103 3.10638 15.0522 3.1835 14.3819C3.3015 13.3571 2.88962 12.3627 2.08164 11.7216C1.55308 11.302 1.25 10.6746 1.25 9.99997C1.25 9.32535 1.55314 8.6979 2.08153 8.27849C2.88962 7.63727 3.3015 6.64284 3.1835 5.61822C3.10638 4.94776 3.33572 4.28969 3.81286 3.81274C4.28993 3.33567 4.948 3.10621 5.61834 3.18362C6.64326 3.30138 7.63733 2.88956 8.27843 2.0817C8.69784 1.55314 9.32529 1.25 10 1.25C10.6747 1.25 11.3022 1.55314 11.7215 2.08176C12.3626 2.88968 13.3566 3.30138 14.3818 3.18356C15.052 3.10632 15.71 3.33567 16.1872 3.8128C16.6642 4.28969 16.8936 4.94776 16.8164 5.6181ZM10.874 14.8635V14.4406C12.1427 14.2 13.1417 13.4708 13.1562 12.1365C13.1562 10.299 11.5813 9.66458 10.1083 9.28542C8.63542 8.90625 8.16146 8.50521 8.16146 7.89271C8.16146 7.19271 8.81771 6.69688 9.91146 6.69688C10.8302 6.69688 11.2896 7.05417 11.4573 7.60833C11.5302 7.87083 11.749 8.06042 12.0188 8.06042H12.2083C12.6385 8.06042 12.9448 7.6375 12.799 7.23646C12.5219 6.46354 11.8875 5.83646 10.8813 5.58854V5.13646C10.8813 4.60417 10.4438 4.16667 9.91146 4.16667H9.90417C9.37188 4.16667 8.93438 4.60417 8.93438 5.13646V5.57396C7.68021 5.84375 6.66667 6.66042 6.66667 7.91458C6.66667 9.40938 7.90625 10.1531 9.71458 10.5906C11.3406 10.9771 11.6615 11.5458 11.6615 12.151C11.6615 12.5958 11.3406 13.3104 9.91146 13.3104C8.84688 13.3104 8.29271 12.9313 8.08125 12.3844C7.97917 12.1292 7.76042 11.9469 7.49063 11.9469H7.31563C6.87813 11.9469 6.56458 12.3917 6.73229 12.7927C7.09688 13.6896 7.95729 14.2219 8.92708 14.426V14.8635C8.92708 15.3958 9.36458 15.8333 9.89688 15.8333H9.90417C10.4365 15.8333 10.874 15.3958 10.874 14.8635Z" fill="currentColor"/>
  </symbol>

  <symbol id="automations" viewBox="0 0 18 18">
    <path d="M7.33332 6.08333V11.9167C7.33332 12.2583 7.72498 12.4583 7.99998 12.25L11.8917 9.33333C12.1167 9.16666 12.1167 8.83333 11.8917 8.66666L7.99998 5.75C7.72498 5.54166 7.33332 5.74166 7.33332 6.08333ZM8.16665 1.69167C8.16665 1.15833 7.67498 0.749998 7.15832 0.866665C6.22498 1.08333 5.34165 1.45 4.55832 1.95C4.11665 2.23333 4.04998 2.86667 4.42498 3.24167C4.69165 3.50833 5.11665 3.575 5.43332 3.375C6.07498 2.96667 6.78332 2.66667 7.54998 2.5C7.91665 2.41667 8.16665 2.075 8.16665 1.69167V1.69167ZM3.24998 4.425C2.86665 4.05 2.24165 4.10833 1.95832 4.55833C1.45832 5.34167 1.09165 6.225 0.874983 7.15833C0.758316 7.675 1.15832 8.16666 1.69165 8.16666C2.06665 8.16666 2.41665 7.91666 2.49165 7.55C2.65832 6.79167 2.96665 6.075 3.36665 5.44167C3.58332 5.11667 3.51665 4.69167 3.24998 4.425ZM1.69165 9.83333C1.15832 9.83333 0.749983 10.325 0.86665 10.8417C1.08332 11.775 1.44998 12.65 1.94998 13.4417C2.23332 13.8917 2.86665 13.95 3.24165 13.575C3.50832 13.3083 3.57498 12.8833 3.36665 12.5667C2.95832 11.9333 2.65832 11.225 2.49165 10.4583C2.41665 10.0833 2.07498 9.83333 1.69165 9.83333V9.83333ZM4.55832 16.0417C5.34998 16.5417 6.22498 16.9083 7.15832 17.125C7.67498 17.2417 8.16665 16.8333 8.16665 16.3083C8.16665 15.9333 7.91665 15.5833 7.54998 15.5083C6.79165 15.3417 6.07498 15.0333 5.44165 14.6333C5.11665 14.4333 4.69998 14.4917 4.43332 14.7667C4.04998 15.1333 4.10832 15.7583 4.55832 16.0417ZM17.3333 9C17.3333 12.9417 14.5833 16.2583 10.8917 17.1167C10.375 17.2417 9.87498 16.8333 9.87498 16.3C9.87498 15.9167 10.1333 15.5833 10.5 15.4917C13.4583 14.8083 15.6667 12.1583 15.6667 9C15.6667 5.84167 13.4583 3.19167 10.5 2.50833C10.1333 2.425 9.87498 2.08333 9.87498 1.7C9.87498 1.16667 10.375 0.758332 10.8917 0.883332C14.5833 1.74167 17.3333 5.05833 17.3333 9Z" fill="currentColor"/>
  </symbol>

  <symbol id="menu-open" viewBox="0 0 17 12">
    <path d="M3.5837 6.91666L6.60868 9.94164C6.96381 10.2968 6.96585 10.8719 6.61325 11.2295C6.2571 11.5908 5.67489 11.5928 5.31618 11.2341L0.789137 6.7071C0.398613 6.31657 0.398614 5.68341 0.789138 5.29288L5.31618 0.765839C5.67489 0.407134 6.2571 0.409199 6.61325 0.770439C6.96585 1.12807 6.96381 1.70321 6.60868 2.05834L3.5837 5.08332H15.3337C15.84 5.08332 16.2504 5.49373 16.2504 5.99999C16.2504 6.50625 15.84 6.91666 15.3337 6.91666H3.5837ZM15.3337 0.49999C15.84 0.49999 16.2504 0.910396 16.2504 1.41666C16.2504 1.92292 15.84 2.33332 15.3337 2.33332H10.0004C9.4941 2.33332 9.0837 1.92292 9.0837 1.41666C9.0837 0.910396 9.4941 0.49999 10.0004 0.49999H15.3337ZM15.3337 9.66666C15.84 9.66666 16.2504 10.0771 16.2504 10.5833C16.2504 11.0896 15.84 11.5 15.3337 11.5H10.0004C9.4941 11.5 9.0837 11.0896 9.0837 10.5833C9.0837 10.0771 9.4941 9.66666 10.0004 9.66666H15.3337Z" fill="currentColor"/>
  </symbol>
</svg>